<mxfile host="65bd71144e">
    <diagram id="60m9Kxx6nMD-RmXP9Cxj" name="第 1 页">
        <mxGraphModel dx="1497" dy="974" grid="1" gridSize="10" guides="1" tooltips="1" connect="1" arrows="1" fold="1" page="1" pageScale="1" pageWidth="827" pageHeight="1169" background="#0f141a" math="0" shadow="0">
            <root>
                <mxCell id="0"/>
                <mxCell id="1" parent="0"/>
                <mxCell id="2" value="&lt;font color=&quot;#000000&quot; style=&quot;font-size: 18px;&quot;&gt;Softmax&lt;/font&gt;" style="rounded=1;whiteSpace=wrap;html=1;fillColor=#33FF99;" parent="1" vertex="1">
                    <mxGeometry x="375" y="100" width="130" height="30" as="geometry"/>
                </mxCell>
                <mxCell id="8" value="" style="edgeStyle=none;html=1;fontSize=18;" parent="1" source="4" target="2" edge="1">
                    <mxGeometry relative="1" as="geometry"/>
                </mxCell>
                <mxCell id="4" value="&lt;font color=&quot;#000000&quot; style=&quot;font-size: 18px;&quot;&gt;Linear&lt;/font&gt;" style="rounded=1;whiteSpace=wrap;html=1;fillColor=#CCCCFF;" parent="1" vertex="1">
                    <mxGeometry x="375" y="160" width="130" height="30" as="geometry"/>
                </mxCell>
                <mxCell id="5" value="&lt;font color=&quot;#000000&quot; style=&quot;font-size: 18px;&quot;&gt;Add&amp;amp;Norm&lt;/font&gt;" style="rounded=1;whiteSpace=wrap;html=1;fillColor=#FFFF99;" parent="1" vertex="1">
                    <mxGeometry x="375" y="220" width="130" height="30" as="geometry"/>
                </mxCell>
                <mxCell id="6" value="" style="endArrow=classic;html=1;fontSize=18;" parent="1" edge="1">
                    <mxGeometry width="50" height="50" relative="1" as="geometry">
                        <mxPoint x="440" y="220" as="sourcePoint"/>
                        <mxPoint x="439.5" y="190" as="targetPoint"/>
                        <Array as="points">
                            <mxPoint x="439.5" y="220"/>
                            <mxPoint x="439.5" y="200"/>
                        </Array>
                    </mxGeometry>
                </mxCell>
                <mxCell id="9" value="&lt;font color=&quot;#000000&quot;&gt;Feed&lt;br&gt;Forward&lt;/font&gt;" style="rounded=1;whiteSpace=wrap;html=1;fontSize=18;fillColor=#99FFFF;" parent="1" vertex="1">
                    <mxGeometry x="375" y="260" width="130" height="50" as="geometry"/>
                </mxCell>
                <mxCell id="10" value="" style="endArrow=none;html=1;fontSize=18;exitX=0.5;exitY=0;exitDx=0;exitDy=0;entryX=0.5;entryY=1;entryDx=0;entryDy=0;" parent="1" source="9" target="5" edge="1">
                    <mxGeometry width="50" height="50" relative="1" as="geometry">
                        <mxPoint x="395" y="300" as="sourcePoint"/>
                        <mxPoint x="445" y="250" as="targetPoint"/>
                    </mxGeometry>
                </mxCell>
                <mxCell id="11" value="&lt;font color=&quot;#000000&quot; style=&quot;font-size: 18px;&quot;&gt;Add&amp;amp;Norm&lt;/font&gt;" style="rounded=1;whiteSpace=wrap;html=1;fillColor=#FFFF99;" parent="1" vertex="1">
                    <mxGeometry x="375" y="340" width="130" height="30" as="geometry"/>
                </mxCell>
                <mxCell id="12" value="" style="endArrow=classic;html=1;fontSize=18;" parent="1" edge="1">
                    <mxGeometry width="50" height="50" relative="1" as="geometry">
                        <mxPoint x="440" y="340" as="sourcePoint"/>
                        <mxPoint x="439.5" y="310" as="targetPoint"/>
                        <Array as="points">
                            <mxPoint x="439.5" y="340"/>
                            <mxPoint x="439.5" y="320"/>
                        </Array>
                    </mxGeometry>
                </mxCell>
                <mxCell id="13" value="" style="endArrow=classic;html=1;fontSize=18;entryX=1;entryY=0.5;entryDx=0;entryDy=0;" parent="1" target="5" edge="1">
                    <mxGeometry width="50" height="50" relative="1" as="geometry">
                        <mxPoint x="445" y="330" as="sourcePoint"/>
                        <mxPoint x="555" y="190" as="targetPoint"/>
                        <Array as="points">
                            <mxPoint x="535" y="330"/>
                            <mxPoint x="535" y="235"/>
                        </Array>
                    </mxGeometry>
                </mxCell>
                <mxCell id="16" style="edgeStyle=none;html=1;exitX=0.5;exitY=0;exitDx=0;exitDy=0;fontSize=18;" parent="1" source="15" edge="1">
                    <mxGeometry relative="1" as="geometry">
                        <mxPoint x="440" y="390" as="targetPoint"/>
                    </mxGeometry>
                </mxCell>
                <mxCell id="15" value="&lt;font color=&quot;#000000&quot;&gt;Multi-Head&lt;br&gt;Attention&lt;/font&gt;" style="rounded=1;whiteSpace=wrap;html=1;fontSize=18;fillColor=#FFCC99;" parent="1" vertex="1">
                    <mxGeometry x="375" y="380" width="130" height="60" as="geometry"/>
                </mxCell>
                <mxCell id="17" value="" style="endArrow=none;html=1;fontSize=18;exitX=0.5;exitY=0;exitDx=0;exitDy=0;entryX=0.5;entryY=1;entryDx=0;entryDy=0;" parent="1" source="15" target="11" edge="1">
                    <mxGeometry width="50" height="50" relative="1" as="geometry">
                        <mxPoint x="405" y="360" as="sourcePoint"/>
                        <mxPoint x="455" y="310" as="targetPoint"/>
                    </mxGeometry>
                </mxCell>
                <mxCell id="23" style="edgeStyle=none;html=1;fontSize=18;" parent="1" source="18" edge="1">
                    <mxGeometry relative="1" as="geometry">
                        <mxPoint x="440" y="500" as="targetPoint"/>
                    </mxGeometry>
                </mxCell>
                <mxCell id="18" value="&lt;font color=&quot;#000000&quot; style=&quot;font-size: 18px;&quot;&gt;Add&amp;amp;Norm&lt;/font&gt;" style="rounded=1;whiteSpace=wrap;html=1;strokeColor=#FFFFFF;fillColor=#FFFF99;" parent="1" vertex="1">
                    <mxGeometry x="375" y="500" width="130" height="30" as="geometry"/>
                </mxCell>
                <mxCell id="19" value="&lt;font color=&quot;#000000&quot;&gt;Masked&lt;br&gt;Multi-Head&lt;br&gt;Attention&lt;/font&gt;" style="rounded=1;whiteSpace=wrap;html=1;fontSize=18;fillColor=#FFCC99;" parent="1" vertex="1">
                    <mxGeometry x="375" y="540" width="130" height="70" as="geometry"/>
                </mxCell>
                <mxCell id="20" value="" style="endArrow=none;html=1;fontSize=18;exitX=0.5;exitY=0;exitDx=0;exitDy=0;entryX=0.5;entryY=1;entryDx=0;entryDy=0;" parent="1" source="19" target="18" edge="1">
                    <mxGeometry width="50" height="50" relative="1" as="geometry">
                        <mxPoint x="405" y="550" as="sourcePoint"/>
                        <mxPoint x="455" y="500" as="targetPoint"/>
                    </mxGeometry>
                </mxCell>
                <mxCell id="22" value="" style="curved=1;endArrow=classic;html=1;fontSize=18;exitX=0.454;exitY=0.033;exitDx=0;exitDy=0;exitPerimeter=0;entryX=0.923;entryY=1;entryDx=0;entryDy=0;entryPerimeter=0;" parent="1" source="18" target="15" edge="1">
                    <mxGeometry width="50" height="50" relative="1" as="geometry">
                        <mxPoint x="405" y="450" as="sourcePoint"/>
                        <mxPoint x="475" y="450" as="targetPoint"/>
                        <Array as="points">
                            <mxPoint x="435" y="470"/>
                            <mxPoint x="495" y="470"/>
                        </Array>
                    </mxGeometry>
                </mxCell>
                <mxCell id="44" style="edgeStyle=none;html=1;exitX=0.5;exitY=0;exitDx=0;exitDy=0;entryX=0.5;entryY=1;entryDx=0;entryDy=0;fontSize=30;" parent="1" source="24" target="43" edge="1">
                    <mxGeometry relative="1" as="geometry"/>
                </mxCell>
                <mxCell id="24" value="&lt;font color=&quot;#000000&quot;&gt;Output&lt;br&gt;Embedding&lt;/font&gt;" style="rounded=1;whiteSpace=wrap;html=1;fontSize=18;fillColor=#FFCCCC;" parent="1" vertex="1">
                    <mxGeometry x="375" y="730" width="130" height="60" as="geometry"/>
                </mxCell>
                <mxCell id="25" value="" style="endArrow=classic;html=1;fontSize=18;entryX=0.5;entryY=1;entryDx=0;entryDy=0;" parent="1" target="24" edge="1">
                    <mxGeometry width="50" height="50" relative="1" as="geometry">
                        <mxPoint x="440" y="840" as="sourcePoint"/>
                        <mxPoint x="455" y="790" as="targetPoint"/>
                    </mxGeometry>
                </mxCell>
                <mxCell id="26" value="&lt;font style=&quot;font-size: 20px;&quot;&gt;Outputs&lt;br&gt;(shifted right)&lt;/font&gt;" style="text;html=1;strokeColor=none;fillColor=none;align=center;verticalAlign=middle;whiteSpace=wrap;rounded=0;fontSize=18;" parent="1" vertex="1">
                    <mxGeometry x="380" y="850" width="120" height="40" as="geometry"/>
                </mxCell>
                <mxCell id="42" style="edgeStyle=none;html=1;exitX=0.5;exitY=0;exitDx=0;exitDy=0;entryX=0.5;entryY=1;entryDx=0;entryDy=0;fontSize=30;" parent="1" source="27" target="41" edge="1">
                    <mxGeometry relative="1" as="geometry"/>
                </mxCell>
                <mxCell id="27" value="&lt;font color=&quot;#000000&quot;&gt;Input&lt;br&gt;Embedding&lt;/font&gt;" style="rounded=1;whiteSpace=wrap;html=1;fontSize=18;fillColor=#FFCCCC;" parent="1" vertex="1">
                    <mxGeometry x="175" y="730" width="130" height="60" as="geometry"/>
                </mxCell>
                <mxCell id="28" value="" style="rounded=1;whiteSpace=wrap;html=1;fontSize=18;fillColor=none;" parent="1" vertex="1">
                    <mxGeometry x="365" y="205" width="180" height="455" as="geometry"/>
                </mxCell>
                <mxCell id="29" value="&lt;font color=&quot;#000000&quot; style=&quot;font-size: 18px;&quot;&gt;Add&amp;amp;Norm&lt;/font&gt;" style="rounded=1;whiteSpace=wrap;html=1;fillColor=#FFFF99;" parent="1" vertex="1">
                    <mxGeometry x="175" y="360" width="130" height="30" as="geometry"/>
                </mxCell>
                <mxCell id="30" value="&lt;font color=&quot;#000000&quot;&gt;Feed&lt;br&gt;Forward&lt;/font&gt;" style="rounded=1;whiteSpace=wrap;html=1;fontSize=18;fillColor=#99FFFF;" parent="1" vertex="1">
                    <mxGeometry x="175" y="400" width="130" height="50" as="geometry"/>
                </mxCell>
                <mxCell id="32" value="" style="endArrow=none;html=1;fontSize=18;exitX=0.5;exitY=0;exitDx=0;exitDy=0;entryX=0.5;entryY=1;entryDx=0;entryDy=0;" parent="1" source="30" target="29" edge="1">
                    <mxGeometry width="50" height="50" relative="1" as="geometry">
                        <mxPoint x="345" y="480" as="sourcePoint"/>
                        <mxPoint x="395" y="430" as="targetPoint"/>
                    </mxGeometry>
                </mxCell>
                <mxCell id="38" style="edgeStyle=none;html=1;exitX=0.5;exitY=0;exitDx=0;exitDy=0;entryX=0.5;entryY=1;entryDx=0;entryDy=0;fontSize=18;" parent="1" source="33" target="30" edge="1">
                    <mxGeometry relative="1" as="geometry"/>
                </mxCell>
                <mxCell id="33" value="&lt;font color=&quot;#000000&quot; style=&quot;font-size: 18px;&quot;&gt;Add&amp;amp;Norm&lt;/font&gt;" style="rounded=1;whiteSpace=wrap;html=1;fillColor=#FFFF99;" parent="1" vertex="1">
                    <mxGeometry x="175" y="510" width="130" height="30" as="geometry"/>
                </mxCell>
                <mxCell id="35" value="&lt;font color=&quot;#000000&quot;&gt;Multi-Head&lt;br&gt;Attention&lt;/font&gt;" style="rounded=1;whiteSpace=wrap;html=1;fontSize=18;fillColor=#FFCC99;" parent="1" vertex="1">
                    <mxGeometry x="175" y="550" width="130" height="60" as="geometry"/>
                </mxCell>
                <mxCell id="37" value="" style="endArrow=none;html=1;fontSize=18;exitX=0.5;exitY=0;exitDx=0;exitDy=0;entryX=0.5;entryY=1;entryDx=0;entryDy=0;" parent="1" source="35" target="33" edge="1">
                    <mxGeometry width="50" height="50" relative="1" as="geometry">
                        <mxPoint x="345" y="480" as="sourcePoint"/>
                        <mxPoint x="395" y="430" as="targetPoint"/>
                    </mxGeometry>
                </mxCell>
                <mxCell id="40" value="" style="endArrow=classic;html=1;fontSize=18;entryX=0;entryY=0.5;entryDx=0;entryDy=0;" parent="1" target="29" edge="1">
                    <mxGeometry width="50" height="50" relative="1" as="geometry">
                        <mxPoint x="235" y="480" as="sourcePoint"/>
                        <mxPoint x="145" y="370" as="targetPoint"/>
                        <Array as="points">
                            <mxPoint x="145" y="480"/>
                            <mxPoint x="145" y="375"/>
                        </Array>
                    </mxGeometry>
                </mxCell>
                <mxCell id="41" value="&lt;font style=&quot;font-size: 30px;&quot;&gt;+&lt;/font&gt;" style="ellipse;whiteSpace=wrap;html=1;aspect=fixed;fontSize=18;fillColor=none;" parent="1" vertex="1">
                    <mxGeometry x="227.5" y="680" width="25" height="25" as="geometry"/>
                </mxCell>
                <mxCell id="46" style="edgeStyle=none;html=1;exitX=0.5;exitY=0;exitDx=0;exitDy=0;entryX=0.5;entryY=1;entryDx=0;entryDy=0;fontSize=30;" parent="1" source="43" target="19" edge="1">
                    <mxGeometry relative="1" as="geometry"/>
                </mxCell>
                <mxCell id="43" value="&lt;font style=&quot;font-size: 30px;&quot;&gt;+&lt;/font&gt;" style="ellipse;whiteSpace=wrap;html=1;aspect=fixed;fontSize=18;fillColor=none;" parent="1" vertex="1">
                    <mxGeometry x="427.5" y="680" width="25" height="25" as="geometry"/>
                </mxCell>
                <mxCell id="45" value="" style="endArrow=classic;html=1;fontSize=30;exitX=0.5;exitY=0;exitDx=0;exitDy=0;entryX=0.5;entryY=1;entryDx=0;entryDy=0;" parent="1" source="41" target="35" edge="1">
                    <mxGeometry width="50" height="50" relative="1" as="geometry">
                        <mxPoint x="485" y="570" as="sourcePoint"/>
                        <mxPoint x="535" y="520" as="targetPoint"/>
                    </mxGeometry>
                </mxCell>
                <mxCell id="48" value="" style="endArrow=classic;html=1;fontSize=30;entryX=1;entryY=0.75;entryDx=0;entryDy=0;" parent="1" target="11" edge="1">
                    <mxGeometry width="50" height="50" relative="1" as="geometry">
                        <mxPoint x="435" y="490" as="sourcePoint"/>
                        <mxPoint x="535" y="360" as="targetPoint"/>
                        <Array as="points">
                            <mxPoint x="535" y="490"/>
                            <mxPoint x="535" y="363"/>
                        </Array>
                    </mxGeometry>
                </mxCell>
                <mxCell id="49" value="&lt;font style=&quot;font-size: 20px;&quot;&gt;Inputs&lt;/font&gt;" style="text;html=1;strokeColor=none;fillColor=none;align=center;verticalAlign=middle;whiteSpace=wrap;rounded=0;fontSize=18;" parent="1" vertex="1">
                    <mxGeometry x="180" y="850" width="120" height="40" as="geometry"/>
                </mxCell>
                <mxCell id="50" value="" style="endArrow=classic;html=1;fontSize=30;entryX=0.5;entryY=1;entryDx=0;entryDy=0;" parent="1" target="27" edge="1">
                    <mxGeometry width="50" height="50" relative="1" as="geometry">
                        <mxPoint x="240" y="840" as="sourcePoint"/>
                        <mxPoint x="515" y="730" as="targetPoint"/>
                    </mxGeometry>
                </mxCell>
                <mxCell id="52" value="&lt;font style=&quot;font-size: 68px;&quot;&gt;~&lt;/font&gt;" style="ellipse;whiteSpace=wrap;html=1;aspect=fixed;fontSize=30;fillColor=none;" parent="1" vertex="1">
                    <mxGeometry x="165" y="672.5" width="40" height="40" as="geometry"/>
                </mxCell>
                <mxCell id="53" value="" style="endArrow=none;html=1;fontSize=68;exitX=1;exitY=0.5;exitDx=0;exitDy=0;entryX=0;entryY=0.5;entryDx=0;entryDy=0;" parent="1" source="52" target="41" edge="1">
                    <mxGeometry width="50" height="50" relative="1" as="geometry">
                        <mxPoint x="355" y="660" as="sourcePoint"/>
                        <mxPoint x="405" y="610" as="targetPoint"/>
                    </mxGeometry>
                </mxCell>
                <mxCell id="55" value="&lt;font style=&quot;font-size: 20px;&quot;&gt;Positional&lt;br&gt;Encoding&lt;/font&gt;" style="text;html=1;strokeColor=none;fillColor=none;align=center;verticalAlign=middle;whiteSpace=wrap;rounded=0;fontSize=18;" parent="1" vertex="1">
                    <mxGeometry x="75" y="675" width="60" height="30" as="geometry"/>
                </mxCell>
                <mxCell id="56" value="&lt;font style=&quot;font-size: 20px;&quot;&gt;Positional&lt;br&gt;Encoding&lt;/font&gt;" style="text;html=1;strokeColor=none;fillColor=none;align=center;verticalAlign=middle;whiteSpace=wrap;rounded=0;fontSize=18;" parent="1" vertex="1">
                    <mxGeometry x="535" y="677.5" width="60" height="30" as="geometry"/>
                </mxCell>
                <mxCell id="57" value="" style="endArrow=classic;html=1;fontSize=18;entryX=0.1;entryY=1.029;entryDx=0;entryDy=0;entryPerimeter=0;" parent="1" target="19" edge="1">
                    <mxGeometry width="50" height="50" relative="1" as="geometry">
                        <mxPoint x="445" y="630" as="sourcePoint"/>
                        <mxPoint x="395" y="630" as="targetPoint"/>
                        <Array as="points">
                            <mxPoint x="415" y="630"/>
                            <mxPoint x="395" y="630"/>
                        </Array>
                    </mxGeometry>
                </mxCell>
                <mxCell id="58" value="" style="endArrow=classic;html=1;fontSize=18;entryX=0.885;entryY=1.014;entryDx=0;entryDy=0;entryPerimeter=0;" parent="1" target="19" edge="1">
                    <mxGeometry width="50" height="50" relative="1" as="geometry">
                        <mxPoint x="445" y="630" as="sourcePoint"/>
                        <mxPoint x="405" y="600" as="targetPoint"/>
                        <Array as="points">
                            <mxPoint x="485" y="630"/>
                        </Array>
                    </mxGeometry>
                </mxCell>
                <mxCell id="59" value="" style="endArrow=classic;html=1;fontSize=18;entryX=1;entryY=0.5;entryDx=0;entryDy=0;" parent="1" target="18" edge="1">
                    <mxGeometry width="50" height="50" relative="1" as="geometry">
                        <mxPoint x="445" y="640" as="sourcePoint"/>
                        <mxPoint x="535" y="520" as="targetPoint"/>
                        <Array as="points">
                            <mxPoint x="535" y="640"/>
                            <mxPoint x="535" y="515"/>
                        </Array>
                    </mxGeometry>
                </mxCell>
                <mxCell id="61" value="" style="endArrow=classic;html=1;fontSize=18;entryX=0.885;entryY=1.014;entryDx=0;entryDy=0;entryPerimeter=0;" parent="1" edge="1">
                    <mxGeometry width="50" height="50" relative="1" as="geometry">
                        <mxPoint x="245" y="630" as="sourcePoint"/>
                        <mxPoint x="290.04999999999995" y="610" as="targetPoint"/>
                        <Array as="points">
                            <mxPoint x="285" y="629"/>
                        </Array>
                    </mxGeometry>
                </mxCell>
                <mxCell id="62" value="" style="endArrow=classic;html=1;fontSize=18;" parent="1" edge="1">
                    <mxGeometry width="50" height="50" relative="1" as="geometry">
                        <mxPoint x="245" y="630" as="sourcePoint"/>
                        <mxPoint x="185" y="610" as="targetPoint"/>
                        <Array as="points">
                            <mxPoint x="195" y="630"/>
                        </Array>
                    </mxGeometry>
                </mxCell>
                <mxCell id="63" value="" style="endArrow=classic;html=1;fontSize=18;entryX=0;entryY=0.5;entryDx=0;entryDy=0;" parent="1" target="33" edge="1">
                    <mxGeometry width="50" height="50" relative="1" as="geometry">
                        <mxPoint x="235" y="640" as="sourcePoint"/>
                        <mxPoint x="155" y="570" as="targetPoint"/>
                        <Array as="points">
                            <mxPoint x="145" y="640"/>
                            <mxPoint x="145" y="525"/>
                        </Array>
                    </mxGeometry>
                </mxCell>
                <mxCell id="64" value="" style="endArrow=classic;html=1;fontSize=18;exitX=0.5;exitY=0;exitDx=0;exitDy=0;entryX=0.5;entryY=1;entryDx=0;entryDy=0;" parent="1" source="29" target="15" edge="1">
                    <mxGeometry width="50" height="50" relative="1" as="geometry">
                        <mxPoint x="355" y="350" as="sourcePoint"/>
                        <mxPoint x="435" y="470" as="targetPoint"/>
                        <Array as="points">
                            <mxPoint x="240" y="330"/>
                            <mxPoint x="345" y="330"/>
                            <mxPoint x="345" y="470"/>
                            <mxPoint x="435" y="470"/>
                        </Array>
                    </mxGeometry>
                </mxCell>
                <mxCell id="65" value="" style="endArrow=classic;html=1;fontSize=18;entryX=0.162;entryY=1.017;entryDx=0;entryDy=0;entryPerimeter=0;" parent="1" target="15" edge="1">
                    <mxGeometry width="50" height="50" relative="1" as="geometry">
                        <mxPoint x="385" y="470" as="sourcePoint"/>
                        <mxPoint x="405" y="300" as="targetPoint"/>
                        <Array as="points">
                            <mxPoint x="395" y="460"/>
                        </Array>
                    </mxGeometry>
                </mxCell>
                <mxCell id="66" value="" style="endArrow=classic;html=1;fontSize=18;exitX=0.5;exitY=0;exitDx=0;exitDy=0;" parent="1" source="2" edge="1">
                    <mxGeometry width="50" height="50" relative="1" as="geometry">
                        <mxPoint x="355" y="150" as="sourcePoint"/>
                        <mxPoint x="440" y="70" as="targetPoint"/>
                    </mxGeometry>
                </mxCell>
                <mxCell id="67" value="&lt;font style=&quot;font-size: 20px;&quot;&gt;Output&lt;br&gt;Probabilities&lt;/font&gt;" style="text;html=1;strokeColor=none;fillColor=none;align=center;verticalAlign=middle;whiteSpace=wrap;rounded=0;fontSize=18;" parent="1" vertex="1">
                    <mxGeometry x="410" y="30" width="60" height="30" as="geometry"/>
                </mxCell>
                <mxCell id="68" value="" style="rounded=1;whiteSpace=wrap;html=1;fontSize=20;fillColor=none;" parent="1" vertex="1">
                    <mxGeometry x="135" y="350" width="190" height="310" as="geometry"/>
                </mxCell>
                <mxCell id="69" value="Nx" style="text;html=1;strokeColor=none;fillColor=none;align=center;verticalAlign=middle;whiteSpace=wrap;rounded=0;fontSize=20;" parent="1" vertex="1">
                    <mxGeometry x="545" y="430" width="60" height="30" as="geometry"/>
                </mxCell>
                <mxCell id="70" value="Nx" style="text;html=1;strokeColor=none;fillColor=none;align=center;verticalAlign=middle;whiteSpace=wrap;rounded=0;fontSize=20;" parent="1" vertex="1">
                    <mxGeometry x="75" y="430" width="60" height="30" as="geometry"/>
                </mxCell>
                <mxCell id="71" value="&lt;font style=&quot;font-size: 68px;&quot;&gt;~&lt;/font&gt;" style="ellipse;whiteSpace=wrap;html=1;aspect=fixed;fontSize=30;fillColor=none;" parent="1" vertex="1">
                    <mxGeometry x="470" y="672.5" width="40" height="40" as="geometry"/>
                </mxCell>
                <mxCell id="72" value="" style="endArrow=none;html=1;fontSize=20;exitX=1;exitY=0.5;exitDx=0;exitDy=0;entryX=0;entryY=0.5;entryDx=0;entryDy=0;" parent="1" source="43" target="71" edge="1">
                    <mxGeometry width="50" height="50" relative="1" as="geometry">
                        <mxPoint x="395" y="710" as="sourcePoint"/>
                        <mxPoint x="445" y="660" as="targetPoint"/>
                    </mxGeometry>
                </mxCell>
                <mxCell id="73" value="&lt;font style=&quot;font-size: 21px;&quot;&gt;Scaled Dot-Product Attention&lt;/font&gt;" style="text;html=1;align=center;verticalAlign=middle;resizable=0;points=[];autosize=1;strokeColor=none;fillColor=none;" parent="1" vertex="1">
                    <mxGeometry x="5" y="950" width="290" height="40" as="geometry"/>
                </mxCell>
                <mxCell id="74" value="&lt;font style=&quot;font-size: 21px;&quot;&gt;Multi-Head Attention&lt;/font&gt;" style="text;html=1;align=center;verticalAlign=middle;resizable=0;points=[];autosize=1;strokeColor=none;fillColor=none;fontSize=20;" parent="1" vertex="1">
                    <mxGeometry x="432.5" y="950" width="210" height="40" as="geometry"/>
                </mxCell>
                <mxCell id="76" value="&lt;font color=&quot;#000000&quot;&gt;MatMul&lt;/font&gt;" style="rounded=1;whiteSpace=wrap;html=1;fontSize=20;fillColor=#CC99FF;strokeColor=#FFFFFF;" parent="1" vertex="1">
                    <mxGeometry x="100" y="1030" width="110" height="30" as="geometry"/>
                </mxCell>
                <mxCell id="77" value="&lt;font color=&quot;#000000&quot;&gt;SoftMax&lt;/font&gt;" style="rounded=1;whiteSpace=wrap;html=1;fontSize=20;fillColor=#99FFCC;" parent="1" vertex="1">
                    <mxGeometry x="60" y="1080" width="110" height="30" as="geometry"/>
                </mxCell>
                <mxCell id="83" style="edgeStyle=none;html=1;exitX=0.5;exitY=0;exitDx=0;exitDy=0;entryX=0.5;entryY=1;entryDx=0;entryDy=0;fontSize=20;" parent="1" source="78" target="77" edge="1">
                    <mxGeometry relative="1" as="geometry"/>
                </mxCell>
                <mxCell id="78" value="&lt;font color=&quot;#000000&quot;&gt;Mask(opt.)&lt;/font&gt;" style="rounded=1;whiteSpace=wrap;html=1;fontSize=20;fillColor=#FF99CC;" parent="1" vertex="1">
                    <mxGeometry x="60" y="1130" width="110" height="30" as="geometry"/>
                </mxCell>
                <mxCell id="84" style="edgeStyle=none;html=1;exitX=0.5;exitY=0;exitDx=0;exitDy=0;entryX=0.5;entryY=1;entryDx=0;entryDy=0;fontSize=20;" parent="1" source="79" target="78" edge="1">
                    <mxGeometry relative="1" as="geometry"/>
                </mxCell>
                <mxCell id="79" value="&lt;font color=&quot;#000000&quot;&gt;Scale&lt;/font&gt;" style="rounded=1;whiteSpace=wrap;html=1;fontSize=20;fillColor=#FFFF99;" parent="1" vertex="1">
                    <mxGeometry x="75" y="1180" width="80" height="30" as="geometry"/>
                </mxCell>
                <mxCell id="85" style="edgeStyle=none;html=1;exitX=0.5;exitY=0;exitDx=0;exitDy=0;entryX=0.5;entryY=1;entryDx=0;entryDy=0;fontSize=20;" parent="1" source="81" target="79" edge="1">
                    <mxGeometry relative="1" as="geometry"/>
                </mxCell>
                <mxCell id="81" value="&lt;font color=&quot;#000000&quot;&gt;MatMul&lt;/font&gt;" style="rounded=1;whiteSpace=wrap;html=1;fontSize=20;fillColor=#CC99FF;" parent="1" vertex="1">
                    <mxGeometry x="60" y="1230" width="110" height="30" as="geometry"/>
                </mxCell>
                <mxCell id="82" value="" style="endArrow=classic;html=1;fontSize=20;exitX=0.5;exitY=0;exitDx=0;exitDy=0;entryX=0.145;entryY=1.033;entryDx=0;entryDy=0;entryPerimeter=0;" parent="1" source="77" target="76" edge="1">
                    <mxGeometry width="50" height="50" relative="1" as="geometry">
                        <mxPoint x="390" y="1150" as="sourcePoint"/>
                        <mxPoint x="440" y="1100" as="targetPoint"/>
                    </mxGeometry>
                </mxCell>
                <mxCell id="86" value="Q" style="text;html=1;align=center;verticalAlign=middle;resizable=0;points=[];autosize=1;strokeColor=none;fillColor=none;fontSize=20;" parent="1" vertex="1">
                    <mxGeometry x="60" y="1290" width="40" height="40" as="geometry"/>
                </mxCell>
                <mxCell id="87" value="K" style="text;html=1;align=center;verticalAlign=middle;resizable=0;points=[];autosize=1;strokeColor=none;fillColor=none;fontSize=20;" parent="1" vertex="1">
                    <mxGeometry x="120" y="1290" width="40" height="40" as="geometry"/>
                </mxCell>
                <mxCell id="88" value="V" style="text;html=1;align=center;verticalAlign=middle;resizable=0;points=[];autosize=1;strokeColor=none;fillColor=none;fontSize=20;" parent="1" vertex="1">
                    <mxGeometry x="185" y="1290" width="40" height="40" as="geometry"/>
                </mxCell>
                <mxCell id="89" value="" style="endArrow=classic;html=1;fontSize=20;exitX=0.525;exitY=-0.025;exitDx=0;exitDy=0;exitPerimeter=0;" parent="1" source="86" edge="1">
                    <mxGeometry width="50" height="50" relative="1" as="geometry">
                        <mxPoint x="390" y="1150" as="sourcePoint"/>
                        <mxPoint x="81" y="1260" as="targetPoint"/>
                    </mxGeometry>
                </mxCell>
                <mxCell id="90" value="" style="endArrow=classic;html=1;fontSize=20;exitX=0.55;exitY=0;exitDx=0;exitDy=0;exitPerimeter=0;entryX=0.75;entryY=1;entryDx=0;entryDy=0;" parent="1" source="87" target="81" edge="1">
                    <mxGeometry width="50" height="50" relative="1" as="geometry">
                        <mxPoint x="390" y="1150" as="sourcePoint"/>
                        <mxPoint x="440" y="1100" as="targetPoint"/>
                    </mxGeometry>
                </mxCell>
                <mxCell id="91" value="" style="endArrow=classic;html=1;fontSize=20;exitX=0.45;exitY=0.025;exitDx=0;exitDy=0;exitPerimeter=0;entryX=0.927;entryY=1.167;entryDx=0;entryDy=0;entryPerimeter=0;" parent="1" source="88" target="76" edge="1">
                    <mxGeometry width="50" height="50" relative="1" as="geometry">
                        <mxPoint x="390" y="1150" as="sourcePoint"/>
                        <mxPoint x="440" y="1100" as="targetPoint"/>
                    </mxGeometry>
                </mxCell>
                <mxCell id="92" value="" style="endArrow=classic;html=1;fontSize=20;exitX=0.5;exitY=0;exitDx=0;exitDy=0;" parent="1" source="76" edge="1">
                    <mxGeometry width="50" height="50" relative="1" as="geometry">
                        <mxPoint x="390" y="1050" as="sourcePoint"/>
                        <mxPoint x="155" y="1000" as="targetPoint"/>
                    </mxGeometry>
                </mxCell>
                <mxCell id="93" value="Linear" style="rounded=1;whiteSpace=wrap;html=1;strokeColor=#FFFFFF;fontSize=20;fontColor=#000000;fillColor=#CCFFFF;" parent="1" vertex="1">
                    <mxGeometry x="495" y="1030" width="90" height="30" as="geometry"/>
                </mxCell>
                <mxCell id="94" value="" style="endArrow=classic;html=1;fontSize=20;fontColor=#000000;exitX=0.5;exitY=0;exitDx=0;exitDy=0;" parent="1" source="93" edge="1">
                    <mxGeometry width="50" height="50" relative="1" as="geometry">
                        <mxPoint x="390" y="1050" as="sourcePoint"/>
                        <mxPoint x="540" y="1000" as="targetPoint"/>
                    </mxGeometry>
                </mxCell>
                <mxCell id="95" value="" style="endArrow=classic;html=1;fontSize=20;fontColor=#000000;entryX=0.5;entryY=1;entryDx=0;entryDy=0;" parent="1" target="93" edge="1">
                    <mxGeometry width="50" height="50" relative="1" as="geometry">
                        <mxPoint x="540" y="1090" as="sourcePoint"/>
                        <mxPoint x="440" y="1000" as="targetPoint"/>
                    </mxGeometry>
                </mxCell>
                <mxCell id="96" value="Concat" style="rounded=1;whiteSpace=wrap;html=1;strokeColor=#FFFFFF;fontSize=20;fontColor=#000000;fillColor=#FFFF99;" parent="1" vertex="1">
                    <mxGeometry x="500" y="1090" width="80" height="30" as="geometry"/>
                </mxCell>
                <mxCell id="97" value="" style="rounded=1;whiteSpace=wrap;html=1;strokeColor=#FFFFFF;fontSize=20;fontColor=#000000;fillColor=#E5CCFF;opacity=60;" parent="1" vertex="1">
                    <mxGeometry x="465" y="1160" width="195" height="60" as="geometry"/>
                </mxCell>
                <mxCell id="98" value="" style="rounded=1;whiteSpace=wrap;html=1;strokeColor=#FFFFFF;fontSize=20;fontColor=#000000;fillColor=#CC99FF;opacity=70;" parent="1" vertex="1">
                    <mxGeometry x="450" y="1169" width="200" height="60" as="geometry"/>
                </mxCell>
                <mxCell id="99" value="Scaled Dot-Product&lt;br&gt;Attention" style="rounded=1;whiteSpace=wrap;html=1;strokeColor=#FFFFFF;fontSize=20;fontColor=#000000;fillColor=#CC99FF;" parent="1" vertex="1">
                    <mxGeometry x="440" y="1180" width="200" height="60" as="geometry"/>
                </mxCell>
                <mxCell id="100" value="" style="endArrow=classic;html=1;fontSize=20;fontColor=#000000;exitX=0.5;exitY=0;exitDx=0;exitDy=0;entryX=0.5;entryY=1;entryDx=0;entryDy=0;" parent="1" source="99" target="96" edge="1">
                    <mxGeometry width="50" height="50" relative="1" as="geometry">
                        <mxPoint x="390" y="1030" as="sourcePoint"/>
                        <mxPoint x="440" y="980" as="targetPoint"/>
                    </mxGeometry>
                </mxCell>
                <mxCell id="101" value="" style="endArrow=classic;html=1;fontSize=20;fontColor=#000000;entryX=0.75;entryY=1;entryDx=0;entryDy=0;" parent="1" target="96" edge="1">
                    <mxGeometry width="50" height="50" relative="1" as="geometry">
                        <mxPoint x="560" y="1160" as="sourcePoint"/>
                        <mxPoint x="563" y="1130" as="targetPoint"/>
                    </mxGeometry>
                </mxCell>
                <mxCell id="103" value="" style="endArrow=classic;html=1;fontSize=20;fontColor=#000000;exitX=0.579;exitY=-0.017;exitDx=0;exitDy=0;exitPerimeter=0;" parent="1" source="97" edge="1">
                    <mxGeometry width="50" height="50" relative="1" as="geometry">
                        <mxPoint x="390" y="1030" as="sourcePoint"/>
                        <mxPoint x="578" y="1120" as="targetPoint"/>
                    </mxGeometry>
                </mxCell>
                <mxCell id="106" value="" style="endArrow=none;html=1;fontSize=20;fontColor=#000000;exitX=1;exitY=0.75;exitDx=0;exitDy=0;entryX=1;entryY=0.5;entryDx=0;entryDy=0;strokeWidth=5;" parent="1" source="99" target="97" edge="1">
                    <mxGeometry width="50" height="50" relative="1" as="geometry">
                        <mxPoint x="390" y="1030" as="sourcePoint"/>
                        <mxPoint x="680" y="1180" as="targetPoint"/>
                        <Array as="points">
                            <mxPoint x="660" y="1230"/>
                            <mxPoint x="680" y="1200"/>
                        </Array>
                    </mxGeometry>
                </mxCell>
                <mxCell id="107" value="&lt;font color=&quot;#ffffff&quot;&gt;h&lt;/font&gt;" style="text;html=1;align=center;verticalAlign=middle;resizable=0;points=[];autosize=1;strokeColor=none;fillColor=none;fontSize=20;fontColor=#000000;" parent="1" vertex="1">
                    <mxGeometry x="680" y="1200" width="30" height="40" as="geometry"/>
                </mxCell>
                <mxCell id="108" value="" style="rounded=1;whiteSpace=wrap;html=1;strokeColor=#FFFFFF;fontSize=20;fontColor=#FFFFFF;fillColor=#CCFFE6;opacity=60;" parent="1" vertex="1">
                    <mxGeometry x="450" y="1261.02" width="65" height="30" as="geometry"/>
                </mxCell>
                <mxCell id="113" value="" style="rounded=1;whiteSpace=wrap;html=1;strokeColor=#FFFFFF;fontSize=20;fontColor=#FFFFFF;fillColor=#CCFFE6;opacity=80;" parent="1" vertex="1">
                    <mxGeometry x="442.5" y="1271.02" width="67.5" height="30" as="geometry"/>
                </mxCell>
                <mxCell id="115" value="&lt;font color=&quot;#000000&quot;&gt;Linear&lt;/font&gt;" style="rounded=1;whiteSpace=wrap;html=1;strokeColor=#FFFFFF;fontSize=20;fontColor=#FFFFFF;fillColor=#CCFFE6;" parent="1" vertex="1">
                    <mxGeometry x="435" y="1281.02" width="65" height="30" as="geometry"/>
                </mxCell>
                <mxCell id="122" value="" style="endArrow=classic;html=1;strokeWidth=1;fontSize=20;fontColor=#000000;jumpSize=6;exitX=0.5;exitY=0;exitDx=0;exitDy=0;" parent="1" source="115" edge="1">
                    <mxGeometry width="50" height="50" relative="1" as="geometry">
                        <mxPoint x="390" y="1231.02" as="sourcePoint"/>
                        <mxPoint x="468" y="1241.02" as="targetPoint"/>
                    </mxGeometry>
                </mxCell>
                <mxCell id="123" value="" style="endArrow=classic;html=1;strokeWidth=1;fontSize=20;fontColor=#000000;jumpSize=6;exitX=0.5;exitY=0;exitDx=0;exitDy=0;" parent="1" source="113" edge="1">
                    <mxGeometry width="50" height="50" relative="1" as="geometry">
                        <mxPoint x="390" y="1231.02" as="sourcePoint"/>
                        <mxPoint x="476" y="1241.02" as="targetPoint"/>
                    </mxGeometry>
                </mxCell>
                <mxCell id="124" value="" style="endArrow=classic;html=1;strokeWidth=1;fontSize=20;fontColor=#000000;jumpSize=6;exitX=0.5;exitY=0;exitDx=0;exitDy=0;entryX=0.215;entryY=0.983;entryDx=0;entryDy=0;entryPerimeter=0;" parent="1" source="108" edge="1">
                    <mxGeometry width="50" height="50" relative="1" as="geometry">
                        <mxPoint x="390" y="1231.02" as="sourcePoint"/>
                        <mxPoint x="483" y="1240" as="targetPoint"/>
                    </mxGeometry>
                </mxCell>
                <mxCell id="125" value="" style="rounded=1;whiteSpace=wrap;html=1;strokeColor=#FFFFFF;fontSize=20;fontColor=#FFFFFF;fillColor=#CCFFE6;opacity=60;" parent="1" vertex="1">
                    <mxGeometry x="520" y="1261.02" width="65" height="30" as="geometry"/>
                </mxCell>
                <mxCell id="126" value="" style="rounded=1;whiteSpace=wrap;html=1;strokeColor=#FFFFFF;fontSize=20;fontColor=#FFFFFF;fillColor=#CCFFE6;opacity=80;" parent="1" vertex="1">
                    <mxGeometry x="512.5" y="1271.02" width="67.5" height="30" as="geometry"/>
                </mxCell>
                <mxCell id="127" value="&lt;font color=&quot;#000000&quot;&gt;Linear&lt;/font&gt;" style="rounded=1;whiteSpace=wrap;html=1;strokeColor=#FFFFFF;fontSize=20;fontColor=#FFFFFF;fillColor=#CCFFE6;" parent="1" vertex="1">
                    <mxGeometry x="505" y="1281.02" width="65" height="30" as="geometry"/>
                </mxCell>
                <mxCell id="128" value="" style="endArrow=classic;html=1;strokeWidth=1;fontSize=20;fontColor=#000000;jumpSize=6;exitX=0.5;exitY=0;exitDx=0;exitDy=0;" parent="1" source="127" edge="1">
                    <mxGeometry width="50" height="50" relative="1" as="geometry">
                        <mxPoint x="460" y="1231.02" as="sourcePoint"/>
                        <mxPoint x="538" y="1241.02" as="targetPoint"/>
                    </mxGeometry>
                </mxCell>
                <mxCell id="129" value="" style="endArrow=classic;html=1;strokeWidth=1;fontSize=20;fontColor=#000000;jumpSize=6;exitX=0.5;exitY=0;exitDx=0;exitDy=0;" parent="1" source="126" edge="1">
                    <mxGeometry width="50" height="50" relative="1" as="geometry">
                        <mxPoint x="460" y="1231.02" as="sourcePoint"/>
                        <mxPoint x="546" y="1241.02" as="targetPoint"/>
                    </mxGeometry>
                </mxCell>
                <mxCell id="130" value="" style="endArrow=classic;html=1;strokeWidth=1;fontSize=20;fontColor=#000000;jumpSize=6;exitX=0.5;exitY=0;exitDx=0;exitDy=0;entryX=0.215;entryY=0.983;entryDx=0;entryDy=0;entryPerimeter=0;" parent="1" source="125" edge="1">
                    <mxGeometry width="50" height="50" relative="1" as="geometry">
                        <mxPoint x="460" y="1231.02" as="sourcePoint"/>
                        <mxPoint x="553" y="1240" as="targetPoint"/>
                    </mxGeometry>
                </mxCell>
                <mxCell id="131" value="" style="rounded=1;whiteSpace=wrap;html=1;strokeColor=#FFFFFF;fontSize=20;fontColor=#FFFFFF;fillColor=#CCFFE6;opacity=60;" parent="1" vertex="1">
                    <mxGeometry x="595" y="1261.02" width="65" height="30" as="geometry"/>
                </mxCell>
                <mxCell id="132" value="" style="rounded=1;whiteSpace=wrap;html=1;strokeColor=#FFFFFF;fontSize=20;fontColor=#FFFFFF;fillColor=#CCFFE6;opacity=80;" parent="1" vertex="1">
                    <mxGeometry x="587.5" y="1271.02" width="67.5" height="30" as="geometry"/>
                </mxCell>
                <mxCell id="133" value="&lt;font color=&quot;#000000&quot;&gt;Linear&lt;/font&gt;" style="rounded=1;whiteSpace=wrap;html=1;strokeColor=#FFFFFF;fontSize=20;fontColor=#FFFFFF;fillColor=#CCFFE6;" parent="1" vertex="1">
                    <mxGeometry x="580" y="1281.02" width="65" height="30" as="geometry"/>
                </mxCell>
                <mxCell id="134" value="" style="endArrow=classic;html=1;strokeWidth=1;fontSize=20;fontColor=#000000;jumpSize=6;exitX=0.5;exitY=0;exitDx=0;exitDy=0;" parent="1" source="133" edge="1">
                    <mxGeometry width="50" height="50" relative="1" as="geometry">
                        <mxPoint x="535" y="1231.02" as="sourcePoint"/>
                        <mxPoint x="613" y="1241.02" as="targetPoint"/>
                    </mxGeometry>
                </mxCell>
                <mxCell id="135" value="" style="endArrow=classic;html=1;strokeWidth=1;fontSize=20;fontColor=#000000;jumpSize=6;exitX=0.5;exitY=0;exitDx=0;exitDy=0;" parent="1" source="132" edge="1">
                    <mxGeometry width="50" height="50" relative="1" as="geometry">
                        <mxPoint x="535" y="1231.02" as="sourcePoint"/>
                        <mxPoint x="621" y="1241.02" as="targetPoint"/>
                    </mxGeometry>
                </mxCell>
                <mxCell id="136" value="" style="endArrow=classic;html=1;strokeWidth=1;fontSize=20;fontColor=#000000;jumpSize=6;exitX=0.5;exitY=0;exitDx=0;exitDy=0;entryX=0.215;entryY=0.983;entryDx=0;entryDy=0;entryPerimeter=0;" parent="1" source="131" edge="1">
                    <mxGeometry width="50" height="50" relative="1" as="geometry">
                        <mxPoint x="535" y="1231.02" as="sourcePoint"/>
                        <mxPoint x="628" y="1240" as="targetPoint"/>
                    </mxGeometry>
                </mxCell>
                <mxCell id="137" value="&lt;font color=&quot;#ffffff&quot;&gt;V&lt;/font&gt;" style="text;html=1;align=center;verticalAlign=middle;resizable=0;points=[];autosize=1;strokeColor=none;fillColor=none;fontSize=20;fontColor=#000000;" parent="1" vertex="1">
                    <mxGeometry x="447.5" y="1370" width="40" height="40" as="geometry"/>
                </mxCell>
                <mxCell id="138" value="" style="endArrow=classic;html=1;strokeWidth=1;fontSize=20;fontColor=#FFFFFF;jumpSize=6;entryX=0.5;entryY=1;entryDx=0;entryDy=0;" parent="1" target="115" edge="1">
                    <mxGeometry width="50" height="50" relative="1" as="geometry">
                        <mxPoint x="468" y="1370" as="sourcePoint"/>
                        <mxPoint x="440" y="1280" as="targetPoint"/>
                    </mxGeometry>
                </mxCell>
                <mxCell id="139" value="K" style="text;html=1;align=center;verticalAlign=middle;resizable=0;points=[];autosize=1;strokeColor=none;fillColor=none;fontSize=20;fontColor=#FFFFFF;opacity=60;" parent="1" vertex="1">
                    <mxGeometry x="517.5" y="1370" width="40" height="40" as="geometry"/>
                </mxCell>
                <mxCell id="140" value="" style="endArrow=classic;html=1;strokeWidth=1;fontSize=20;fontColor=#FFFFFF;jumpSize=6;exitX=0.494;exitY=0;exitDx=0;exitDy=0;exitPerimeter=0;entryX=0.5;entryY=1;entryDx=0;entryDy=0;" parent="1" source="139" target="127" edge="1">
                    <mxGeometry width="50" height="50" relative="1" as="geometry">
                        <mxPoint x="390" y="1330" as="sourcePoint"/>
                        <mxPoint x="440" y="1280" as="targetPoint"/>
                    </mxGeometry>
                </mxCell>
                <mxCell id="141" value="Q" style="text;html=1;align=center;verticalAlign=middle;resizable=0;points=[];autosize=1;strokeColor=none;fillColor=none;fontSize=20;fontColor=#FFFFFF;" parent="1" vertex="1">
                    <mxGeometry x="595" y="1370" width="40" height="40" as="geometry"/>
                </mxCell>
                <mxCell id="142" value="" style="endArrow=classic;html=1;strokeWidth=1;fontSize=20;fontColor=#FFFFFF;jumpSize=6;exitX=0.463;exitY=0.025;exitDx=0;exitDy=0;exitPerimeter=0;entryX=0.5;entryY=1;entryDx=0;entryDy=0;" parent="1" source="141" target="133" edge="1">
                    <mxGeometry width="50" height="50" relative="1" as="geometry">
                        <mxPoint x="390" y="1330" as="sourcePoint"/>
                        <mxPoint x="440" y="1280" as="targetPoint"/>
                    </mxGeometry>
                </mxCell>
            </root>
        </mxGraphModel>
    </diagram>
</mxfile>